<?xml version="1.0" encoding="UTF-8" standalone="no"?><!DOCTYPE svg PUBLIC "-//W3C//DTD SVG 1.1//EN" "http://www.w3.org/Graphics/SVG/1.1/DTD/svg11.dtd"><svg width="100%" height="100%" viewBox="0 0 30 30" version="1.1" xmlns="http://www.w3.org/2000/svg" xmlns:xlink="http://www.w3.org/1999/xlink" xml:space="preserve" xmlns:serif="http://www.serif.com/" style="fill-rule:evenodd;clip-rule:evenodd;stroke-linejoin:round;stroke-miterlimit:2;"><g><rect x="8" y="4" width="14" height="21" style="fill:#ebebeb;"/><path d="M27.56,0.684l-25.177,0c-1.318,0 -2.383,1.064 -2.383,2.38l-0,23.813c-0,1.312 1.065,2.379 2.383,2.379l25.177,0c1.312,0 2.38,-1.066 2.38,-2.379l-0,-23.813c-0.001,-1.316 -1.069,-2.38 -2.38,-2.38Zm-7.435,8.483c-0.619,-0.362 -1.11,-0.648 -1.727,-0.648c-0.604,-0 -1.12,0.151 -1.384,0.405c-0.264,0.252 -0.395,0.74 -0.395,1.461l0,1.067l3.229,-0l-0.699,2.968l-2.53,-0l0,9.862l-4.056,-0l0,-9.862l-1.893,-0l0,-2.968l1.895,-0l0,-1.133c0,-1.193 0.143,-1.907 0.425,-2.496c0.281,-0.587 0.826,-1.241 1.584,-1.611c0.757,-0.369 1.877,-0.555 3.036,-0.555c1.188,-0 2.116,0.396 3.254,0.715l-0.739,2.795Z" style="fill-rule:nonzero;"/></g></svg>