<?xml version="1.0" encoding="UTF-8" standalone="no"?><!DOCTYPE svg PUBLIC "-//W3C//DTD SVG 1.1//EN" "http://www.w3.org/Graphics/SVG/1.1/DTD/svg11.dtd"><svg width="100%" height="100%" viewBox="0 0 512 512" version="1.1" xmlns="http://www.w3.org/2000/svg" xmlns:xlink="http://www.w3.org/1999/xlink" xml:space="preserve" xmlns:serif="http://www.serif.com/" style="fill-rule:evenodd;clip-rule:evenodd;stroke-linejoin:round;stroke-miterlimit:2;"><g><path d="M482,70l-455,-2l34,410l390,1l31,-409Z" style="fill:#ebebeb;"/><path d="M256,13.6c-71.7,0 -169.4,1.1 -189.3,2.9c-22.2,13.3 -66.3,63.9 -66.7,77l0,22c0,27.8 26.1,52.3 49.7,52.3c28.3,0 51.9,-23.6 51.9,-51.4c0,27.8 22.9,51.4 51.2,51.4c28.5,0 50.5,-23.6 50.5,-51.4c0,27.8 24,51.4 52.5,51.4l0.5,0c28.5,0 52.5,-23.6 52.5,-51.4c0,27.8 22.3,51.4 50.5,51.4c28.2,0 51.2,-23.6 51.2,-51.4c0,27.8 23.6,51.4 51.9,51.4c23.6,0 49.6,-24.5 49.6,-52.3l0,-22c-0.4,-13.1 -44.5,-63.7 -66.8,-77c-69.2,-2.5 -117.5,-2.9 -189.2,-2.9Zm-54,148.6c-23.2,39.9 -81.5,40.4 -104.3,0.3c-13.9,24.1 -45.3,33.4 -58.8,28.8c-3.9,41.8 -6.6,256.7 21.9,292.7c83.7,19.5 308.9,19.1 390.2,0c32.9,-33.6 25.6,-253.9 21.9,-292.7c-13.4,4.6 -44.9,-4.7 -58.5,-28.8c-23,40.1 -81.3,39.6 -104.5,-0.3c-7.2,13 -23.8,30.1 -54,30.1c-22,0.9 -42.8,-11.1 -53.9,-30.1Zm-46.9,49.7c17.6,0 33.7,0 53.1,21.6c32,-3.3 63.7,-3.3 95.6,0c19.6,-21.4 35.5,-21.4 53.1,-21.4c56.9,0 70.5,84 91,156.2c18.5,67.2 -6.2,69 -36.8,69c-45.6,-1.8 -70.9,-34.8 -70.9,-68.1c-42.5,7 -110.4,9.7 -168.4,0c0,33.3 -25.3,66.3 -70.9,68.1c-30.6,0 -55.4,-1.8 -36.8,-69c20.5,-72.7 34.2,-156.2 91,-156.2l0,-0.2Zm100.9,63.4c0,0 -37.3,34.4 -44.1,46.4l24.4,-0.9l0,21.3l19.7,0.2c9.8,0.4 19.7,0.7 19.7,-0.2l0,-21.3l24.4,0.9c-6.7,-12 -44.1,-46.4 -44.1,-46.4Z" style="fill-rule:nonzero;"/></g></svg>