<?xml version="1.0" encoding="UTF-8" standalone="no"?><!DOCTYPE svg PUBLIC "-//W3C//DTD SVG 1.1//EN" "http://www.w3.org/Graphics/SVG/1.1/DTD/svg11.dtd"><svg width="100%" height="100%" viewBox="0 0 256 256" version="1.1" xmlns="http://www.w3.org/2000/svg" xmlns:xlink="http://www.w3.org/1999/xlink" xml:space="preserve" xmlns:serif="http://www.serif.com/" style="fill-rule:evenodd;clip-rule:evenodd;stroke-linecap:round;stroke-linejoin:round;stroke-miterlimit:1.5;"><path d="M167.625,61.784c4.066,-0.729 15.431,-1.675 20.125,-1.675c4.694,0 8.506,1.184 8.506,2.642c2.347,-1.263 5.678,-4.371 9.744,-3.642c4.066,0.729 3,2.5 5.5,4c4.066,-0.729 7.153,-0.262 9.5,1c2.347,1.263 5.566,4.771 1.5,5.5c2,0.5 2.354,1.586 2,3c-0.5,2 -1.5,2.5 -5.5,3.5c1,2.5 -5.516,5.034 -8,6c-9,3.5 -18.556,3 -23.25,3c-4.694,0 -8.506,-1.183 -8.506,-2.641c-2.347,1.262 -7.553,1.696 -11.619,0.967c-4.066,-0.729 -12.385,-3.313 -14.733,-4.576c-2.347,-1.262 -0.952,-2.879 3.114,-3.608c-4.695,-0 -8.506,-1.184 -8.506,-2.642c0,-1.458 12.946,-7.945 17.012,-7.217c-2.348,-1.262 -0.953,-2.879 3.113,-3.608Z" style="fill:#fff;fill-opacity:0.73;stroke:#808080;stroke-width:1px;"/><path d="M43.125,45.784c4.066,-0.729 15.431,-1.675 20.125,-1.675c4.694,0 8.506,1.184 8.506,2.642c2.347,-1.263 5.678,-4.371 9.744,-3.642c4.066,0.729 3,2.5 5.5,4c4.066,-0.729 7.153,-0.262 9.5,1c2.347,1.263 5.566,4.771 1.5,5.5c2,0.5 2.354,1.586 2,3c-0.5,2 -1.5,2.5 -5.5,3.5c1,2.5 -5.516,5.034 -8,6c-9,3.5 -18.556,3 -23.25,3c-4.694,0 -8.506,-1.183 -8.506,-2.641c-2.347,1.262 -7.553,1.696 -11.619,0.967c-4.066,-0.729 -12.385,-3.313 -14.733,-4.576c-2.347,-1.262 -0.952,-2.879 3.114,-3.608c-4.695,-0 -8.506,-1.184 -8.506,-2.642c0,-1.458 12.946,-7.945 17.012,-7.217c-2.348,-1.262 -0.953,-2.879 3.113,-3.608Z" style="fill:#fff;fill-opacity:0.74;stroke:#808080;stroke-width:1px;"/><g id="Layer1"><path d="M39,246.5l25,-64l29,-39l70,0l26.5,39.5l29.5,63.5l-10,5l-81,2.5l-79,-2.5l-10,-5Z" style="fill:#ebebeb;stroke:#000;stroke-width:1px;"/><path d="M49,240l57.5,-158.5l42,0l60.5,158.5l-81,9l-79,-9Z" style="fill:#fcf3cd;stroke:#000;stroke-width:1px;"/><path d="M64,246.5l39,-141.5l25,-17l25,17l39,141.5l-64,5l-64,-5Z" style="fill:#fefffe;stroke:#000;stroke-width:1px;"/><path d="M157,105l-29.25,-29.25l-29.25,29.25l29.25,29.25l29.25,-29.25Z" style="fill:#a2a2a2;stroke:#606060;stroke-width:1px;"/><path d="M163,200.5l-35,-8l-35,8l-11.5,45" style="fill:none;stroke:#000;stroke-width:1px;"/><path d="M117.5,248l10.5,3l10.5,-3.5l-3,-53l-7.5,-2l-7.5,2l-3,53.5Z" style="fill:#bababa;"/><path d="M174,245.5l-11,-45" style="fill:none;stroke:#000;stroke-width:1px;"/><path d="M93,246.5l9,-48" style="fill:none;stroke:#000;stroke-width:1px;"/><path d="M163,246.5l-10,-48" style="fill:none;stroke:#000;stroke-width:1px;"/><path d="M106,247l7.5,-51" style="fill:none;stroke:#000;stroke-width:1px;"/><path d="M150.5,247l-7.5,-51l-7.5,-1.5l3,53.5" style="fill:none;stroke:#000;stroke-width:1px;"/><path d="M117.5,248l3,-53.5" style="fill:none;stroke:#000;stroke-width:1px;"/></g><g id="Layer2"><path d="M132.5,97.206l3.294,12.294l-12.294,3.294l-3.294,-12.294l12.294,-3.294Z" style="fill:#fff;stroke:#5a00a5;stroke-width:1px;"/><g><path d="M227.558,114.56l-95.308,-16.921l3.544,11.861l79.242,45.75l12.522,-40.69Z" style="fill:none;stroke:#fff;stroke-width:1px;"/><path d="M227.558,114.56l-95.308,-16.921l3.544,11.861l79.242,45.75l12.522,-40.69Z" style="fill:#bababa;stroke:#000;stroke-width:1px;"/><path d="M220.723,131.398l-82.112,-27.777l0.268,-4.464l86.447,15.269l-4.603,16.972Z" style="fill:#fff;"/></g><g><path d="M118.44,204.558l16.921,-95.308l-11.861,3.544l-45.75,79.242l40.69,12.522Z" style="fill:none;stroke:#fff;stroke-width:1px;"/><path d="M118.44,204.558l16.921,-95.308l-11.861,3.544l-45.75,79.242l40.69,12.522Z" style="fill:#bababa;stroke:#000;stroke-width:1px;"/><path d="M101.602,197.723l27.777,-82.112l4.464,0.268l-15.269,86.447l-16.972,-4.603Z" style="fill:#fff;"/></g><g><path d="M137.56,5.442l-16.921,95.308l11.861,-3.544l45.75,-79.242l-40.69,-12.522Z" style="fill:none;stroke:#fff;stroke-width:1px;"/><path d="M137.56,5.442l-16.921,95.308l11.861,-3.544l45.75,-79.242l-40.69,-12.522Z" style="fill:#bababa;stroke:#000;stroke-width:1px;"/><path d="M154.398,12.277l-27.777,82.112l-4.464,-0.268l15.269,-86.447l16.972,4.603Z" style="fill:#fff;"/></g><g><path d="M28.442,95.44l95.308,16.921l-3.544,-11.861l-79.242,-45.75l-12.522,40.69Z" style="fill:none;stroke:#fff;stroke-width:1px;"/><path d="M28.442,95.44l95.308,16.921l-3.544,-11.861l-79.242,-45.75l-12.522,40.69Z" style="fill:#bababa;stroke:#000;stroke-width:1px;"/><path d="M35.277,78.602l82.112,27.777l-0.268,4.464l-86.447,-15.269l4.603,-16.972Z" style="fill:#fff;"/></g><path d="M130,101.536l1.913,4.296l-3.495,3.146l-4.072,-2.351l0.977,-4.6l4.677,-0.491Z" style="fill:#8300a5;stroke:#000;stroke-width:1px;"/></g></svg>